Coordinates
version=1
nRows=24
nColumns=38
inDegrees=no

Units are S.I. units (second, meters, Newtons, ...)
If the header above contains a line with 'inDegrees', this indicates whether rotational values are in degrees (yes) or radians (no).

endheader
time	pelvis_tilt	pelvis_list	pelvis_rotation	pelvis_tx	pelvis_ty	pelvis_tz	hip_flexion_r	hip_adduction_r	hip_rotation_r	knee_angle_r	ankle_angle_r	subtalar_angle_r	mtp_angle_r	hip_flexion_l	hip_adduction_l	hip_rotation_l	knee_angle_l	ankle_angle_l	subtalar_angle_l	mtp_angle_l	lumbar_extension	lumbar_bending	lumbar_rotation	arm_flex_r	arm_add_r	arm_rot_r	elbow_flex_r	pro_sup_r	wrist_flex_r	wrist_dev_r	arm_flex_l	arm_add_l	arm_rot_l	elbow_flex_l	pro_sup_l	wrist_flex_l	wrist_dev_l
1.29	0.00700134	-0.0145628	-0.00646841	0.890799	0.927742	-0.326608	0.648231	-0.0167419	-0.0648675	-2.20128	-0.0628766	-0.0349027	0.000146859	0.121885	0.106554	0.00214662	-0.792683	0.468852	-0.0763542	0.000193719	-0.333637	0.00193857	-0.110877	-0.625679	-0.335234	-0.125992	1.70387	1.60656	0.0946032	0.0292018	-0.10395	-0.479152	-0.0671412	2.03662	2.24578	0.0811501	-0.0356415
1.3	-0.00174332	-0.0327162	0.00684299	0.891011	0.932036	-0.327438	0.717354	-0.00653766	-0.0888602	-2.15687	-0.0416856	-0.0349027	0.000146859	0.0565002	0.0824142	0.0146259	-0.730442	0.424745	-0.0763542	0.000193719	-0.32119	0.0288911	-0.133788	-0.665642	-0.325276	-0.129187	1.70536	1.57257	0.0946032	0.0292018	-0.0682484	-0.486737	-0.0524903	2.06088	2.21966	0.0811501	-0.0356415
1.31	-0.0113195	-0.0512323	0.0209055	0.891789	0.936902	-0.328236	0.779636	0.00152912	-0.116354	-2.09857	-0.0240662	-0.0349027	0.000146859	-0.00882501	0.0558071	0.0231517	-0.661491	0.359557	-0.0763542	0.000193719	-0.306438	0.0561656	-0.156774	-0.705357	-0.315133	-0.133208	1.71106	1.54619	0.0946032	0.0292018	-0.0377719	-0.492652	-0.0382408	2.08839	2.1899	0.0811501	-0.0356415
1.32	-0.0217334	-0.0696437	0.0344965	0.893019	0.942194	-0.328899	0.834701	0.00875239	-0.144801	-2.02751	-0.00984077	-0.0349027	0.000146859	-0.0723681	0.0274596	0.026394	-0.588733	0.275322	-0.0763542	0.000193719	-0.289702	0.0827425	-0.178649	-0.744262	-0.304416	-0.138371	1.71926	1.5286	0.0946032	0.0292018	-0.0119497	-0.49702	-0.0241499	2.11803	2.15903	0.0811501	-0.0356415
1.33	-0.0329559	-0.0874826	0.0464755	0.89456	0.947739	-0.329325	0.882281	0.0164236	-0.171734	-1.94463	0.00137959	-0.0349027	0.000146859	-0.132358	-0.00171754	0.0236655	-0.515741	0.175772	-0.0763542	0.000193719	-0.271442	0.107672	-0.198309	-0.781765	-0.292874	-0.144795	1.72852	1.51968	0.0946032	0.0292018	0.00989442	-0.499926	-0.0101317	2.14879	2.12936	0.0811501	-0.0356415
1.34	-0.0448855	-0.10422	0.0559874	0.896257	0.953334	-0.329432	0.922099	0.0255184	-0.195002	-1.85061	0.0102038	-0.0349027	0.000146859	-0.187091	-0.0305962	0.0151941	-0.446609	0.0661968	-0.0763542	0.000193719	-0.252257	0.13008	-0.214936	-0.817295	-0.280417	-0.152395	1.73785	1.51831	0.0946032	0.0292018	0.0284449	-0.501461	0.00377272	2.17982	2.1027	0.0811501	-0.0356415
1.35	-0.0573211	-0.119221	0.062597	0.897943	0.958764	-0.329182	0.953794	0.0364602	-0.212945	-1.746	0.0174344	-0.0349027	0.000146859	-0.235072	-0.0578632	0.00219701	-0.385648	-0.0469802	-0.0763542	0.000193719	-0.232864	0.149172	-0.228134	-0.850329	-0.267126	-0.160898	1.74665	1.52276	0.0946032	0.0292018	0.0442997	-0.501751	0.0174386	2.21041	2.08035	0.0811501	-0.0356415
1.36	-0.069939	-0.131755	0.0663303	0.899462	0.963837	-0.328606	0.976898	0.0490266	-0.224498	-1.63133	0.0239959	-0.0349027	0.000146859	-0.275165	-0.0821268	-0.0132746	-0.336967	-0.156887	-0.0763542	0.000193719	-0.214059	0.164251	-0.237969	-0.8804	-0.253234	-0.16988	1.75467	1.53113	0.0946032	0.0292018	0.057888	-0.500977	0.0306914	2.23992	2.06317	0.0811501	-0.0356415
1.37	-0.0822843	-0.141077	0.067626	0.900698	0.968404	-0.327811	0.990866	0.0624261	-0.229243	-1.50733	0.030826	-0.0349027	0.000146859	-0.306722	-0.102078	-0.0286862	-0.304054	-0.257029	-0.0763542	0.000193719	-0.196674	0.174759	-0.244914	-0.907109	-0.239104	-0.178815	1.76184	1.54166	0.0946032	0.0292018	0.0694096	-0.499369	0.0433275	2.2678	2.05165	0.0811501	-0.0356415
1.38	-0.0937869	-0.146545	0.0672095	0.901618	0.972358	-0.326942	0.995179	0.0755125	-0.227421	-1.37519	0.0387561	-0.0349027	0.000146859	-0.329656	-0.116675	-0.0414819	-0.289419	-0.342071	-0.0763542	0.000193719	-0.181509	0.18035	-0.249705	-0.930129	-0.225193	-0.187131	1.76823	1.5529	0.0946032	0.0292018	0.0788114	-0.497195	0.0551266	2.2935	2.04601	0.0811501	-0.0356415
1.39	-0.10379	-0.147748	0.0659123	0.90226	0.975614	-0.326142	0.989491	0.0870738	-0.21988	-1.23684	0.0484036	-0.0349027	0.000146859	-0.344461	-0.125306	-0.0495649	-0.294337	-0.408482	-0.0763542	0.000193719	-0.169279	0.180952	-0.253139	-0.949231	-0.212009	-0.19428	1.77398	1.56377	0.0946032	0.0292018	0.0858093	-0.494728	0.0658758	2.31645	2.04611	0.0811501	-0.0356415
1.4	-0.11162	-0.14461	0.0644932	0.902716	0.978104	-0.325536	0.973807	0.0960833	-0.207994	-1.09503	0.0600716	-0.0349027	0.000146859	-0.352098	-0.127905	-0.0517043	-0.31884	-0.454852	-0.0763542	0.000193719	-0.160522	0.176821	-0.255883	-0.964311	-0.200078	-0.199796	1.77927	1.57354	0.0946032	0.0292018	0.0899478	-0.492216	0.0753925	2.33603	2.05145	0.0811501	-0.0356415
1.41	-0.116708	-0.137454	0.0634972	0.90311	0.979771	-0.3252	0.948653	0.101876	-0.193557	-0.953467	0.0736444	-0.0349027	0.000146859	-0.353781	-0.125004	-0.0478113	-0.361891	-0.481873	-0.0763542	0.000193719	-0.155521	0.168556	-0.258338	-0.975409	-0.189909	-0.203367	1.78439	1.58174	0.0946032	0.0292018	0.0906889	-0.489842	0.083544	2.35157	2.06109	0.0811501	-0.0356415
1.42	-0.118705	-0.126988	0.0631729	0.903586	0.980556	-0.325127	0.91518	0.104253	-0.178618	-0.816644	0.0884831	-0.0349027	0.000146859	-0.350741	-0.117739	-0.0390365	-0.421684	-0.492047	-0.0763542	0.000193719	-0.15424	0.157084	-0.260548	-0.982711	-0.181973	-0.204882	1.78967	1.58804	0.0946032	0.0292018	0.0875195	-0.4877	0.0902624	2.36245	2.07369	0.0811501	-0.0356415
1.43	-0.117551	-0.11425	0.0634498	0.904261	0.98043	-0.325261	0.875161	0.103514	-0.16526	-0.689509	0.103355	-0.0349027	0.000146859	-0.344029	-0.1078	-0.0276406	-0.495941	-0.489121	-0.0763542	0.000193719	-0.156308	0.143614	-0.262193	-0.986532	-0.176671	-0.204472	1.79548	1.5922	0.0946032	0.0292018	0.0800598	-0.485787	0.09555	2.36805	2.08753	0.0811501	-0.0356415
1.44	-0.113479	-0.100527	0.0639791	0.905201	0.979374	-0.325508	0.830879	0.100435	-0.155326	-0.577013	0.116476	-0.0349027	0.000146859	-0.334392	-0.0973066	-0.0166097	-0.582209	-0.477323	-0.0763542	0.000193719	-0.161082	0.129545	-0.262631	-0.987248	-0.174313	-0.202498	1.8022	1.59407	0.0946032	0.0292018	0.0681563	-0.484014	0.0994733	2.36792	2.10072	0.0811501	-0.0356415
1.45	-0.106961	-0.0872378	0.0642208	0.906427	0.977377	-0.32577	0.784905	0.0961806	-0.150151	-0.483614	0.125723	-0.0349027	0.000146859	-0.322239	-0.0886012	-0.00906372	-0.678085	-0.460587	-0.0763542	0.000193719	-0.167776	0.116345	-0.260987	-0.985206	-0.175098	-0.199497	1.81006	1.5936	0.0946032	0.0292018	0.0519383	-0.482225	0.102141	2.36179	2.11159	0.0811501	-0.0356415
1.46	-0.0985943	-0.0757962	0.0635427	0.90789	0.974412	-0.325962	0.739842	0.0921581	-0.150344	-0.412859	0.129043	-0.0349027	0.000146859	-0.307697	-0.0839495	-0.00760113	-0.781359	-0.441976	-0.0763542	0.000193719	-0.175647	0.105399	-0.256277	-0.980609	-0.179106	-0.196077	1.81912	1.5909	0.0946032	0.0292018	0.0318269	-0.480233	0.103671	2.34963	2.11907	0.0811501	-0.0356415
1.47	-0.088986	-0.0674524	0.0613098	0.909473	0.970446	-0.326016	0.69806	0.0898431	-0.15568	-0.367119	0.125017	-0.0349027	0.000146859	-0.290694	-0.0851864	-0.0137377	-0.890074	-0.423449	-0.0763542	0.000193719	-0.184177	0.0978509	-0.247528	-0.973392	-0.186309	-0.192777	1.82908	1.58621	0.0946032	0.0292018	0.00849188	-0.477838	0.104145	2.3317	2.12285	0.0811501	-0.0356415
1.48	-0.0786473	-0.0631508	0.0569507	0.911004	0.965474	-0.325876	0.66147	0.0906033	-0.165068	-0.347445	0.113481	-0.0349027	0.000146859	-0.27103	-0.0933802	-0.0275647	-1.00251	-0.405946	-0.0763542	0.000193719	-0.193196	0.0944678	-0.233913	-0.963137	-0.1966	-0.189919	1.83928	1.5799	0.0946032	0.0292018	-0.0172397	-0.474856	0.103554	2.30854	2.12343	0.0811501	-0.0356415
1.49	-0.0679726	-0.0634185	0.0500374	0.912296	0.959543	-0.3255	0.631293	0.0955563	-0.176655	-0.353491	0.0960295	-0.0349027	0.000146859	-0.248417	-0.108584	-0.0476946	-1.11716	-0.389651	-0.0763542	0.000193719	-0.202919	0.095551	-0.214879	-0.949034	-0.209831	-0.187477	1.84869	1.57248	0.0946032	0.0292018	-0.0445113	-0.471119	0.10175	2.28093	2.12201	0.0811501	-0.0356415
1.5	-0.0571548	-0.0683591	0.0403377	0.913173	0.952825	-0.324867	0.607885	0.105416	-0.188054	-0.383428	0.0761736	-0.0349027	0.000146859	-0.222456	-0.129747	-0.0714946	-1.23259	-0.374282	-0.0763542	0.000193719	-0.213834	0.100882	-0.19029	-0.929928	-0.225849	-0.185004	1.85601	1.56454	0.0946032	0.0292018	-0.0725833	-0.466482	0.098415	2.24987	2.12027	0.0811501	-0.0356415
1.51	-0.0462359	-0.0776008	0.0278908	0.913505	0.945735	-0.323993	0.590602	0.120384	-0.19676	-0.433895	0.0589019	-0.0349027	0.000146859	-0.192633	-0.15484	-0.0955533	-1.3474	-0.359331	-0.0763542	0.000193719	-0.226516	0.109769	-0.160548	-0.904463	-0.244529	-0.181635	1.85985	1.55667	0.0946032	0.0292018	-0.100967	-0.460815	0.0930783	2.21652	2.12018	0.0811501	-0.0356415
1.52	-0.0352189	-0.0903313	0.0130669	0.913197	0.938913	-0.322904	0.577825	0.140052	-0.200666	-0.500075	0.0496334	-0.0349027	0.000146859	-0.15832	-0.181154	-0.116305	-1.46007	-0.344205	-0.0763542	0.000193719	-0.241392	0.12112	-0.126677	-0.871312	-0.265772	-0.176187	1.859	1.54937	0.0946032	0.0292018	-0.129507	-0.454009	0.085178	2.18209	2.12366	0.0811501	-0.0356415
